<?xml version="1.0" encoding="utf-8"?>
<!-- Generator: Adobe Illustrator 25.3.1, SVG Export Plug-In . SVG Version: 6.00 Build 0)  -->
<svg version="1.1" id="Layer_1" xmlns="http://www.w3.org/2000/svg" xmlns:xlink="http://www.w3.org/1999/xlink" x="0px" y="0px"
	 viewBox="0 0 103.1 66.4" style="enable-background:new 0 0 103.1 66.4;" xml:space="preserve">
<style type="text/css">
	.st0{fill:#4FC6E0;}
</style>
<g>
	<g>
		<g id="XMLID_28_">
			<path d="M59.5,24.8c0-5.4-3.2-6.4-9.8-6.4c-1.6,0-3.4,0.1-4.9,0.1v13.4c1.5,0.1,3.2,0.1,4.9,0.1c6.5,0,9.8-1.3,9.8-6.5V24.8z
				 M30.4,57v-8.2l3-0.3V18.4l-3-0.3V9.9c6-0.4,12.3-0.6,18.4-0.6c12.3,0,22.1,2.3,22.1,15.4v0.6c0,13.3-9.8,15.7-21,15.7
				c-1.7,0-3.2-0.1-5.2-0.1v7.5l3,0.3V57H30.4z"/>
		</g>
		<g id="XMLID_18_">
			<path class="st0" d="M63.1,51.6c0-0.8,0.1-1.6,0.4-2.3c0.3-0.7,0.7-1.3,1.2-1.9c0.5-0.5,1.1-0.9,1.9-1.2c0.7-0.3,1.5-0.4,2.3-0.4
				c0.8,0,1.6,0.1,2.3,0.4c0.7,0.3,1.3,0.7,1.9,1.2c0.5,0.5,0.9,1.1,1.2,1.9c0.3,0.7,0.4,1.5,0.4,2.3c0,0.8-0.1,1.6-0.4,2.3
				c-0.3,0.7-0.7,1.3-1.2,1.9c-0.5,0.5-1.1,0.9-1.9,1.2c-0.7,0.3-1.5,0.4-2.3,0.4c-0.8,0-1.6-0.1-2.3-0.4c-0.7-0.3-1.3-0.7-1.9-1.2
				c-0.5-0.5-0.9-1.1-1.2-1.9C63.2,53.1,63.1,52.4,63.1,51.6"/>
		</g>
	</g>
	<g>
		<g>
			<path class="st0" d="M19.2,66.4c-12,0-14.7-3.2-14.7-11.8V43.9c0-4.5-1.1-5.8-4.4-7.8v-5.8c3.3-2,4.4-3.4,4.4-7.8V11.8
				C4.4,3.1,7.2,0,19.2,0h4.5v7.6h-4.4c-4.9,0-5.4,0.6-5.4,4.2v10.6c0,5.7-1.6,8.3-5.3,10.7c3.8,2.5,5.3,5.1,5.3,10.7v10.6
				c0,3.6,0.5,4.2,5.4,4.2h4.5v7.6H19.2z"/>
		</g>
		<g>
			<path class="st0" d="M98.6,43.9v10.6c0,8.6-2.7,11.8-14.7,11.8h-4.6v-7.6h4.5c4.9,0,5.5-0.6,5.5-4.2V43.9c0-5.6,1.6-8.3,5.3-10.7
				c-3.8-2.4-5.3-5-5.3-10.7V11.8c0-3.6-0.6-4.2-5.5-4.2h-4.3V0h4.5c12,0,14.7,3.1,14.7,11.8v10.6c0,4.5,1.1,5.8,4.5,7.8v5.8
				C99.7,38.1,98.6,39.4,98.6,43.9z"/>
		</g>
	</g>
</g>
</svg>
