<?xml version="1.0" encoding="utf-8"?>
<!-- Generator: Adobe Illustrator 25.3.1, SVG Export Plug-In . SVG Version: 6.00 Build 0)  -->
<svg version="1.1" id="Layer_1" xmlns="http://www.w3.org/2000/svg" xmlns:xlink="http://www.w3.org/1999/xlink" x="0px" y="0px"
	 viewBox="0 0 701.1 75.9" style="enable-background:new 0 0 701.1 75.9;" xml:space="preserve">
<style type="text/css">
	.st0{fill:#4FC6E0;}
	.st1{fill:#FDB913;}
</style>
<g>
	<g id="XMLID_28_">
		<path d="M65.2,24.8c0-5.4-3.2-6.4-9.8-6.4c-1.6,0-3.4,0.1-4.9,0.1v13.4c1.5,0.1,3.2,0.1,4.9,0.1c6.5,0,9.8-1.3,9.8-6.5V24.8z
			 M36.1,57v-8.2l3-0.3V18.4l-3-0.3V9.9c6-0.4,12.3-0.6,18.4-0.6c12.3,0,22.1,2.3,22.1,15.4v0.6c0,13.3-9.8,15.7-21,15.7
			c-1.7,0-3.2-0.1-5.2-0.1v7.5l3,0.3V57H36.1z"/>
	</g>
	<g id="XMLID_27_">
		<path d="M104,57V34.2c0-4.6-1.2-5.8-4.7-5.8c-2.8,0-5.6,0.9-7.3,1.6v18.6L95,49V57H78.1V49l2.9-0.3V15.9l-2.9-0.3V7.6H92v14.8
			c2.7-1.4,6.8-2.5,10.8-2.5c10,0,12.2,5.9,12.2,14.2v14.6L118,49V57H104z"/>
	</g>
	<g id="XMLID_24_">
		<path d="M143.3,36.9c0-6.3-1.9-8.5-6.4-8.5c-4.4,0-6.3,2.2-6.3,8.5v3.9c0,6.3,1.9,8.5,6.3,8.5c4.5,0,6.4-2.2,6.4-8.5V36.9z
			 M136.9,57.9c-11,0-17.3-5.1-17.3-17.1v-3.9c0-12,6.3-17.1,17.3-17.1c11.1,0,17.4,5.1,17.4,17.1v3.9
			C154.3,52.8,148,57.9,136.9,57.9"/>
	</g>
	<g id="XMLID_23_">
		<path d="M174.1,57.9c-11.1,0-16.2-5.8-16.2-17.1v-4c0-11.4,5.1-17,16.2-17c5.8,0,10.5,0.9,12,1.4v10.1h-6.8l-0.6-2.8
			c-0.9-0.1-2.1-0.1-2.8-0.1c-4.6,0-7,1.4-7,8.4v4c0,7,2.4,8.5,7.2,8.5c2.2,0,5.3-0.2,10-0.5v7.7C184.1,57.1,179.9,57.9,174.1,57.9"
			/>
	</g>
	<g id="XMLID_20_">
		<path d="M211.4,41.1h-3.7c-5.1,0-7.2,0.6-7.2,4.6v1.5c0,2.8,1.7,3.6,4.1,3.6c2.9,0,5.6-1,6.8-1.6V41.1z M211.9,57v-2.3
			c-2.4,1.6-6.6,3.2-11.4,3.2c-6.8,0-10.6-3.4-10.6-10.3v-1.5c0-9.6,7.4-10.7,17.6-10.7h3.4v-2c0-4.4-1-5.3-6.7-5.3
			c-1.3,0-2.5,0.1-3.9,0.1l-0.6,2.8h-7.1V22c2-0.7,7.9-2.2,13.9-2.2c11.3,0,15.5,3.6,15.5,13.6v15.2l2.9,0.3V57H211.9z"/>
	</g>
	<g id="XMLID_19_">
		<path d="M242.1,57.9c-5.1,0-10.9-0.9-12.9-1.4v-9.3h7.2l0.6,3c1.5,0.1,3,0.1,4.6,0.1c4.4,0,5.6-1,5.6-3.1c0-2-0.9-2.6-5.5-4.4
			l-2.7-1.1c-6.8-2.6-10.5-5.5-10.5-11.5c0-8.1,5.7-10.3,14.9-10.3c5.3,0,11.2,0.8,13.4,1.5v8.7h-7.2l-0.6-2.6
			c-1.5-0.1-3.4-0.1-4.5-0.1c-3.7,0-5.2,0.4-5.2,2.5c0,1.8,0.9,2.5,4.8,3.9l3.2,1.2c7.9,3,10.7,5.8,10.7,11.7
			C258,54.2,252.9,57.9,242.1,57.9"/>
	</g>
	<g id="XMLID_18_">
		<path class="st0" d="M261.8,51.6c0-0.8,0.1-1.6,0.4-2.3c0.3-0.7,0.7-1.3,1.2-1.9c0.5-0.5,1.1-0.9,1.9-1.2c0.7-0.3,1.5-0.4,2.3-0.4
			c0.8,0,1.6,0.1,2.3,0.4c0.7,0.3,1.3,0.7,1.9,1.2c0.5,0.5,0.9,1.1,1.2,1.9c0.3,0.7,0.4,1.5,0.4,2.3c0,0.8-0.1,1.6-0.4,2.3
			c-0.3,0.7-0.7,1.3-1.2,1.9c-0.5,0.5-1.1,0.9-1.9,1.2c-0.7,0.3-1.5,0.4-2.3,0.4c-0.8,0-1.6-0.1-2.3-0.4c-0.7-0.3-1.3-0.7-1.9-1.2
			c-0.5-0.5-0.9-1.1-1.2-1.9C261.9,53.1,261.8,52.4,261.8,51.6"/>
	</g>
	<g>
		<path class="st1" d="M289.2,42.5c0.2,4.5,3,7.4,7.7,7.4c3.6,0,6-1.5,6.8-4l10.5,0.5c-1.3,6.9-8.3,11.8-17,11.8
			c-11.3,0-19-7.2-19-18.8c0-11.7,7.8-18.8,18.7-18.8c10.6,0,17.6,6.7,17.6,18v4.1H289.2z M289.2,35.7H304c-0.2-4.4-2.5-7.3-7.2-7.3
			C292.4,28.5,289.5,31.1,289.2,35.7z"/>
		<path class="st1" d="M354.9,35.2v22.1h-10.4V37.2c0-4.6-2.5-7.2-6.5-7.2c-4.1,0-6.8,2.9-6.8,7.3v20.1h-10.4V21.2h9.8v3.7
			c1.6-2.5,4.9-4.4,9.9-4.4C349,20.5,354.9,25.9,354.9,35.2z"/>
		<path class="st1" d="M389.2,25v-3.8h9.8v37.5c0,10.4-7.3,17.2-18.6,17.2c-11.5,0-17.6-5.7-19-13.9l10.3-0.4
			c0.5,3.5,3.6,5.6,8.3,5.6c5.1,0,8.6-2.6,8.6-7.8v-5.2c-2,2.1-5.6,3.9-10.4,3.9c-10.4,0-17.7-7.5-17.7-18.8
			c0-11.3,7.3-18.8,17.7-18.8C383.4,20.5,387.2,22.4,389.2,25z M371,39.3c0,6.4,3.7,10.1,8.9,10.1c5.1,0,8.7-3.4,8.7-9.2v-1.7
			c0-5.8-3.6-9.2-8.7-9.2C374.7,29.2,371,32.9,371,39.3z"/>
		<path class="st1" d="M418.1,9.3c0,3.4-2.8,6.1-6.3,6.1s-6.2-2.7-6.2-6.1c0-3.4,2.8-6.2,6.2-6.2C415.4,3.2,418.1,5.9,418.1,9.3z
			 M406.7,57.4V21.2h10.4v36.2H406.7z"/>
		<path class="st1" d="M459.1,35.2v22.1h-10.4V37.2c0-4.6-2.5-7.2-6.5-7.2c-4.1,0-6.8,2.9-6.8,7.3v20.1H425V21.2h9.8v3.7
			c1.6-2.5,4.9-4.4,9.9-4.4C453.2,20.5,459.1,25.9,459.1,35.2z"/>
		<path class="st1" d="M475.7,42.5c0.2,4.5,3,7.4,7.7,7.4c3.6,0,6-1.5,6.8-4l10.5,0.5c-1.3,6.9-8.3,11.8-17,11.8
			c-11.3,0-19-7.2-19-18.8c0-11.7,7.8-18.8,18.7-18.8c10.6,0,17.6,6.7,17.6,18v4.1H475.7z M475.7,35.7h14.8
			c-0.2-4.4-2.5-7.3-7.2-7.3C478.9,28.5,476,31.1,475.7,35.7z"/>
		<path class="st1" d="M516.3,42.5c0.2,4.5,3,7.4,7.7,7.4c3.6,0,6-1.5,6.8-4l10.5,0.5c-1.3,6.9-8.3,11.8-17,11.8
			c-11.3,0-19-7.2-19-18.8c0-11.7,7.8-18.8,18.7-18.8c10.6,0,17.6,6.7,17.6,18v4.1H516.3z M516.3,35.7h14.8
			c-0.2-4.4-2.5-7.3-7.2-7.3C519.5,28.5,516.5,31.1,516.3,35.7z"/>
		<path class="st1" d="M568,30.7c-6,0-9.8,3.4-9.8,8.3v18.3h-10.4V21.2h10v4.1c1.6-2.4,4.5-4.5,10.1-4.5V30.7z"/>
		<path class="st1" d="M583.5,9.3c0,3.4-2.8,6.1-6.3,6.1s-6.2-2.7-6.2-6.1c0-3.4,2.8-6.2,6.2-6.2C580.7,3.2,583.5,5.9,583.5,9.3z
			 M572,57.4V21.2h10.4v36.2H572z"/>
		<path class="st1" d="M624.4,35.2v22.1H614V37.2c0-4.6-2.5-7.2-6.5-7.2c-4.1,0-6.8,2.9-6.8,7.3v20.1h-10.4V21.2h9.8v3.7
			c1.6-2.5,4.9-4.4,9.9-4.4C618.5,20.5,624.4,25.9,624.4,35.2z"/>
		<path class="st1" d="M658.7,25v-3.8h9.8v37.5c0,10.4-7.3,17.2-18.6,17.2c-11.5,0-17.6-5.7-19-13.9l10.3-0.4
			c0.5,3.5,3.6,5.6,8.3,5.6c5.1,0,8.6-2.6,8.6-7.8v-5.2c-2,2.1-5.6,3.9-10.4,3.9c-10.4,0-17.7-7.5-17.7-18.8
			c0-11.3,7.3-18.8,17.7-18.8C652.9,20.5,656.8,22.4,658.7,25z M640.5,39.3c0,6.4,3.7,10.1,8.9,10.1c5.1,0,8.7-3.4,8.7-9.2v-1.7
			c0-5.8-3.6-9.2-8.7-9.2C644.2,29.2,640.5,32.9,640.5,39.3z"/>
	</g>
	<g>
		<path class="st0" d="M19.2,66.4c-12,0-14.7-3.2-14.7-11.8V43.9c0-4.5-1.1-5.8-4.4-7.8v-5.8c3.3-2,4.4-3.4,4.4-7.8V11.8
			C4.4,3.1,7.2,0,19.2,0h4.5v7.6h-4.4c-4.9,0-5.4,0.6-5.4,4.2v10.6c0,5.7-1.6,8.3-5.3,10.7c3.8,2.5,5.3,5.1,5.3,10.7v10.6
			c0,3.6,0.5,4.2,5.4,4.2h4.5v7.6H19.2z"/>
	</g>
	<g>
		<path class="st0" d="M696.6,43.9v10.6c0,8.6-2.7,11.8-14.7,11.8h-4.6v-7.6h4.5c4.9,0,5.5-0.6,5.5-4.2V43.9c0-5.6,1.6-8.3,5.3-10.7
			c-3.8-2.4-5.3-5-5.3-10.7V11.8c0-3.6-0.6-4.2-5.5-4.2h-4.3V0h4.5c12,0,14.7,3.1,14.7,11.8v10.6c0,4.5,1.1,5.8,4.5,7.8v5.8
			C697.7,38.1,696.6,39.4,696.6,43.9z"/>
	</g>
</g>
</svg>
