<?xml version="1.0" encoding="utf-8"?>
<!-- Generator: Adobe Illustrator 25.3.1, SVG Export Plug-In . SVG Version: 6.00 Build 0)  -->
<svg version="1.1" id="Layer_1" xmlns="http://www.w3.org/2000/svg" xmlns:xlink="http://www.w3.org/1999/xlink" x="0px" y="0px"
	 viewBox="0 0 500 500" style="enable-background:new 0 0 500 500;" xml:space="preserve">
<style type="text/css">
	.st0{fill:#FDB913;}
	.st1{fill:#6950A1;}
	.st2{fill:#FFCC04;}
	.st3{fill:#00A886;}
	.st4{fill:#4FC6E0;}
	.st5{clip-path:url(#SVGID_2_);}
	.st6{fill-rule:evenodd;clip-rule:evenodd;fill:#D3DCE0;}
	.st7{fill-rule:evenodd;clip-rule:evenodd;fill:#F2F3F4;}
	.st8{fill-rule:evenodd;clip-rule:evenodd;fill:#92ACAD;}
	.st9{fill-rule:evenodd;clip-rule:evenodd;fill:#010101;}
	.st10{fill-rule:evenodd;clip-rule:evenodd;fill:#6C7C7D;}
	.st11{fill:#010101;}
	.st12{fill:#F9ED27;}
</style>
<g>
	<path class="st0" d="M125.6,67.2C81.1,97.4,48.2,143.5,35,197.3l214.6,52.9L125.6,67.2z"/>
	<path class="st1" d="M249.6,250.1L249.6,250.1L35,197.3c-4.2,16.9-6.4,34.6-6.4,52.9c0,61,24.7,116.3,64.7,156.3
		c40,40,95.2,64.7,156.3,64.7c46,0,88.6-14,124-38L249.6,250.1z"/>
	<path class="st2" d="M260.6,197.3c-2.2,0-4.1,1.8-4.1,4.1v4.6c0,2.2,1.8,4.1,4.1,4.1c2.2,0,4.1-1.8,4.1-4.1v-4.6
		C264.7,199.2,262.8,197.3,260.6,197.3z"/>
	<path class="st3" d="M249.6,29.1c-46,0-88.6,14-124,38l124,183V29.1z"/>
	<path class="st4" d="M405.9,93.9c-40-40-95.2-64.7-156.3-64.7v221l124,183c58.5-39.8,97-106.9,97-183
		C470.6,189.1,445.9,133.8,405.9,93.9z"/>
	<g>
		<defs>
			<path id="SVGID_1_" d="M405.9,93.9c-40-40-95.2-64.7-156.3-64.7c-46,0-88.6,14-124,38c-58.5,39.8-97,106.9-97,183
				c0,61,24.7,116.3,64.7,156.3c40,40,95.2,64.7,156.3,64.7c46,0,88.6-14,124-38c58.5-39.8,97-106.9,97-183
				C470.6,189.1,445.9,133.8,405.9,93.9z"/>
		</defs>
		<clipPath id="SVGID_2_">
			<use xlink:href="#SVGID_1_"  style="overflow:visible;"/>
		</clipPath>
		<g class="st5">
			<path class="st6" d="M19.6,386.5V429c0,16.5,13.5,30,30,30l0,0c16.5,0,30-13.5,30-30v-114c0-22.7-19.7-36.8-35.6-18.1
				C24.2,319.9,19.6,357,19.6,386.5L19.6,386.5z M489.3,270.5l9-41.6c3.5-16.1-6.8-32.2-23-35.7l0,0c-16.1-3.5-32.2,6.8-35.7,23
				l-24.1,111.4c-4.8,22.2,11.5,40.1,31,25.3C470.7,334.6,483.1,299.3,489.3,270.5L489.3,270.5z M396,286.6
				c10,8.8,16.3,21.6,16.3,35.9s-6.3,27.2-16.3,35.9V286.6L396,286.6z M99.3,359.1c-10.4-8.8-17-21.9-17-36.6
				c0-14.7,6.6-27.8,17-36.6V359.1z"/>
			<path class="st7" d="M247.7,104.2L247.7,104.2c54.6,0,102.8,28.9,130.1,72.1V91.2c0-3.1,2.6-5.7,5.7-5.7l0,0
				c3.1,0,5.7,2.6,5.7,5.7v106.9c7.8,18.4,12.2,38.6,12.2,59.8v102.4c0,84.5-69.1,153.7-153.7,153.7l0,0
				C163.1,513.9,94,444.8,94,360.3V257.9C94,173.4,163.1,104.2,247.7,104.2L247.7,104.2z M489.3,270.5l9-41.6
				c0.7-3.2,0.8-6.3,0.5-9.4c-1.3-0.4-2.6-0.8-3.9-1.1l0,0c-17.7-3.8-35.3,7.5-39.1,25.2L431,358.4c4.6,0.4,9.9-1.1,15.5-5.4
				C470.7,334.6,483.1,299.3,489.3,270.5L489.3,270.5z M19.6,386.5V429c0,3.2,0.5,6.3,1.5,9.3c1.3,0.2,2.7,0.2,4,0.2l0,0
				c18.1,0,32.9-14.8,32.9-32.9V288.3c-4.6,0.5-9.5,3.2-14,8.5C24.2,319.9,19.6,357,19.6,386.5z"/>
			<path class="st7" d="M245.6,134.5c61.8,0,113.1,44.8,123.2,103.7c-10.7-57.2-60.9-100.6-121.2-100.6
				c-68.1,0-123.3,55.2-123.3,123.3c0,58.1,39.7,74.3,85.1,78.6c-47-4-88.8-19.9-88.8-79.9C120.6,190.5,176.6,134.5,245.6,134.5
				L245.6,134.5z M19.6,386.5V429c0,3.2,0.5,6.3,1.5,9.3c0.7,0.1,1.5,0.2,2.2,0.2c-0.1-0.7-0.1-1.5-0.1-2.3v-42.5
				c0-29.4,4.7-66.6,24.4-89.7c3.4-4,6.9-6.4,10.4-7.7v-8c-4.6,0.5-9.5,3.2-14,8.5C24.2,319.9,19.6,357,19.6,386.5z"/>
			<path class="st8" d="M247.7,137.6c68.1,0,123.3,55.2,123.3,123.3c0,74.2-64.7,80.1-123.3,80.1c-58.5,0-123.3-5.9-123.3-80.1
				C124.4,192.8,179.6,137.6,247.7,137.6z"/>
			<path class="st9" d="M249.1,147.9c62.4,1,112.1,52.3,111.2,114.7c-1,62.4-51.7,68.9-114,68c-62.4-1-112.8-9.1-111.8-71.5
				C135.4,196.7,186.7,147,249.1,147.9z"/>
			<path class="st10" d="M490.2,266.5l0.9-4.4l-9.4-2c-1.2-0.3-2.4,0.5-2.7,1.7l0,0c-0.3,1.2,0.5,2.4,1.7,2.7L490.2,266.5
				L490.2,266.5z M19.6,390.5v4.5h9.6c1.2,0,2.2-1,2.2-2.2l0,0c0-1.2-1-2.2-2.2-2.2H19.6L19.6,390.5z M19.6,399.5v4.5h9.6
				c1.2,0,2.2-1,2.2-2.2l0,0c0-1.2-1-2.2-2.2-2.2H19.6L19.6,399.5z M19.6,408.5v4.5h9.6c1.2,0,2.2-1,2.2-2.2l0,0
				c0-1.2-1-2.2-2.2-2.2H19.6L19.6,408.5z M19.6,417.4v4.5h9.6c1.2,0,2.2-1,2.2-2.2l0,0c0-1.2-1-2.2-2.2-2.2H19.6L19.6,417.4z
				 M19.9,372.6c-0.1,1.5-0.1,3-0.2,4.5h9.4c1.2,0,2.2-1,2.2-2.2l0,0c0-1.2-1-2.2-2.2-2.2H19.9L19.9,372.6z M19.6,381.6
				c0,1.5,0,3,0,4.5h9.6c1.2,0,2.2-1,2.2-2.2l0,0c0-1.2-1-2.2-2.2-2.2H19.6L19.6,381.6z M492.1,257.8l0.9-4.4l-9.4-2
				c-1.2-0.3-2.4,0.5-2.7,1.7l0,0c-0.3,1.2,0.5,2.4,1.7,2.7L492.1,257.8L492.1,257.8z M494,249l0.9-4.4l-9.4-2
				c-1.2-0.3-2.4,0.5-2.7,1.7l0,0c-0.3,1.2,0.5,2.4,1.7,2.7L494,249L494,249z M495.9,240.3l0.9-4.4l-9.4-2c-1.2-0.3-2.4,0.5-2.7,1.7
				l0,0c-0.3,1.2,0.5,2.4,1.7,2.7L495.9,240.3L495.9,240.3z M486.1,284c0.4-1.5,0.8-2.9,1.1-4.3l-9.2-2c-1.2-0.3-2.4,0.5-2.7,1.7
				l0,0c-0.3,1.2,0.5,2.4,1.7,2.7L486.1,284L486.1,284z M488.3,275.3c0.3-1.5,0.7-2.9,1-4.4l-9.4-2c-1.2-0.3-2.4,0.5-2.7,1.7l0,0
				c-0.3,1.2,0.5,2.4,1.7,2.7L488.3,275.3z"/>
			<g>
				<path id="XMLID_2_" class="st11" d="M260.4,393.9c0-10.1-6.1-12-18.5-12c-3.1,0-6.3,0.1-9.2,0.1v25.1c2.9,0.1,6.1,0.1,9.3,0.1
					c12.3,0,18.3-2.4,18.3-12.3V393.9z M205.7,454.5V439l5.6-0.5V382l-5.6-0.6V366c11.2-0.8,23.1-1.1,34.6-1.1
					c23.1,0,41.6,4.3,41.6,28.9v1.1c0,25-18.5,29.5-39.4,29.5c-3.2,0-6.1-0.1-9.8-0.1v14.2l5.6,0.6v15.4H205.7z"/>
				<path id="XMLID_1_" class="st4" d="M267.1,444.3c0-1.5,0.3-2.9,0.8-4.3c0.6-1.3,1.3-2.5,2.3-3.5c1-1,2.2-1.8,3.5-2.3
					c1.3-0.6,2.8-0.8,4.3-0.8c1.5,0,2.9,0.3,4.3,0.8c1.3,0.6,2.5,1.3,3.5,2.3c1,1,1.8,2.2,2.3,3.5c0.6,1.3,0.8,2.8,0.8,4.3
					c0,1.5-0.3,2.9-0.8,4.3c-0.6,1.3-1.3,2.5-2.3,3.5c-1,1-2.2,1.8-3.5,2.3c-1.3,0.6-2.8,0.8-4.3,0.8c-1.5,0-2.9-0.3-4.3-0.8
					c-1.3-0.6-2.5-1.3-3.5-2.3c-1-1-1.8-2.2-2.3-3.5C267.4,447.2,267.1,445.8,267.1,444.3"/>
			</g>
			<g>
				<path class="st12" d="M200.2,215.7c-17-1.5-32.5,15.6-34,32.6l-1.4,16.2c-0.1,1.6-0.2,3.2-0.1,4.7c3.6-14.6,17.5-24.9,32.9-23.6
					c15.4,1.3,27.3,13.9,28.3,28.9c0.4-1.5,0.6-3.1,0.8-4.7l1.4-16.2C229.6,236.7,217.2,217.1,200.2,215.7z"/>
				<path class="st12" d="M294.4,215.7c-17,1.5-29.3,21-27.8,38l1.4,16.2c0.1,1.6,0.4,3.1,0.8,4.7c1-15,12.9-27.6,28.3-28.9
					c15.4-1.3,29.3,9,32.9,23.6c0.1-1.5,0.1-3.1-0.1-4.7l-1.4-16.2C327,231.3,311.4,214.2,294.4,215.7z"/>
			</g>
		</g>
	</g>
</g>
<path class="st6" d="M489.3,270.5l9-41.6c3.5-16.1-6.8-32.2-23-35.7l0,0c-16.1-3.5-32.2,6.8-35.7,23l-24.1,111.4
	c-4.8,22.2,11.5,40.1,31,25.3C470.7,334.6,483.1,299.3,489.3,270.5L489.3,270.5z"/>
<path class="st7" d="M489.3,270.5l9-41.6c0.7-3.2,0.8-6.3,0.5-9.4c-1.3-0.4-2.6-0.8-3.9-1.1l0,0c-17.7-3.8-35.3,7.5-39.1,25.2
	L431,358.4c4.6,0.4,9.9-1.1,15.5-5.4C470.7,334.6,483.1,299.3,489.3,270.5L489.3,270.5z"/>
<path class="st10" d="M490.2,266.5l0.9-4.4l-9.4-2c-1.2-0.3-2.4,0.5-2.7,1.7l0,0c-0.3,1.2,0.5,2.4,1.7,2.7L490.2,266.5L490.2,266.5z
	"/>
<path class="st10" d="M492.1,257.8l0.9-4.4l-9.4-2c-1.2-0.3-2.4,0.5-2.7,1.7l0,0c-0.3,1.2,0.5,2.4,1.7,2.7L492.1,257.8L492.1,257.8z
	"/>
<path class="st10" d="M494,249l0.9-4.4l-9.4-2c-1.2-0.3-2.4,0.5-2.7,1.7l0,0c-0.3,1.2,0.5,2.4,1.7,2.7L494,249L494,249z"/>
<path class="st10" d="M495.9,240.3l0.9-4.4l-9.4-2c-1.2-0.3-2.4,0.5-2.7,1.7l0,0c-0.3,1.2,0.5,2.4,1.7,2.7L495.9,240.3L495.9,240.3z
	"/>
<path class="st10" d="M486.1,284c0.4-1.5,0.8-2.9,1.1-4.3l-9.2-2c-1.2-0.3-2.4,0.5-2.7,1.7l0,0c-0.3,1.2,0.5,2.4,1.7,2.7L486.1,284
	L486.1,284z"/>
<path class="st10" d="M488.3,275.3c0.3-1.5,0.7-2.9,1-4.4l-9.4-2c-1.2-0.3-2.4,0.5-2.7,1.7l0,0c-0.3,1.2,0.5,2.4,1.7,2.7
	L488.3,275.3z"/>
</svg>
